<?xml version="1.0" standalone="no"?>
<!DOCTYPE svg PUBLIC "-//W3C//DTD SVG 20010904//EN"
 "http://www.w3.org/TR/2001/REC-SVG-20010904/DTD/svg10.dtd">
<svg version="1.0" xmlns="http://www.w3.org/2000/svg"
 width="512.000000pt" height="512.000000pt" viewBox="0 0 512.000000 512.000000"
 preserveAspectRatio="xMidYMid meet">

<g transform="translate(0.000000,512.000000) scale(0.100000,-0.100000)"
fill="#000000" stroke="none">
<path d="M258 4612 c-30 -27 -32 -33 -36 -114 -5 -92 7 -145 37 -172 14 -13
87 -27 262 -53 134 -20 249 -41 255 -47 32 -32 805 -2391 812 -2477 10 -125
-53 -278 -163 -397 l-65 -70 -82 0 c-221 1 -380 -155 -381 -372 0 -99 28 -172
94 -245 128 -139 327 -164 486 -59 134 87 196 273 143 424 -11 30 -19 58 -20
63 0 4 403 7 895 7 492 0 895 -2 895 -5 0 -3 -9 -34 -21 -68 -45 -134 -9 -280
95 -382 76 -73 143 -99 261 -100 82 0 96 3 157 33 75 37 142 104 179 179 20
41 24 63 24 153 0 93 -3 111 -27 162 -50 107 -153 184 -278 208 -32 6 -339 10
-799 10 l-745 0 51 53 c69 70 169 207 244 332 l61 103 52 6 c28 3 422 38 876
77 454 39 835 75 847 80 12 4 29 18 37 31 8 13 123 399 256 858 260 898 254
871 200 912 -23 17 -202 31 -1910 149 -1494 104 -1887 134 -1896 145 -6 8 -30
69 -54 137 -79 230 -141 377 -164 392 -18 12 -461 75 -528 75 -10 0 -32 -13
-50 -28z m1200 -807 c107 -7 196 -16 199 -19 4 -3 123 -501 123 -513 0 -5
-285 -1 -385 6 l-99 6 -83 255 c-46 140 -86 263 -89 273 -5 17 0 18 68 12 40
-3 160 -12 266 -20z m749 -52 l272 -17 5 -26 c3 -14 15 -104 26 -200 11 -96
23 -192 26 -212 l6 -38 -255 0 c-140 0 -268 3 -284 6 l-29 6 -57 246 c-31 136
-57 251 -57 255 0 5 17 6 38 3 20 -3 159 -13 309 -23z m858 -59 c138 -9 253
-19 256 -23 4 -3 3 -80 -2 -171 -4 -91 -8 -187 -8 -213 l-1 -48 -287 7 c-159
4 -289 7 -290 8 -3 2 -53 416 -53 442 l0 27 68 -6 c37 -4 180 -14 317 -23z
m768 -53 c136 -10 250 -21 253 -24 4 -4 -8 -92 -26 -197 l-34 -190 -156 0
c-86 0 -205 3 -264 7 l-108 6 7 176 c3 97 8 191 11 209 6 39 -19 38 317 13z
m655 -46 c101 -7 186 -15 188 -18 2 -2 -19 -83 -48 -180 l-51 -177 -179 0
c-136 0 -178 3 -178 13 -1 39 67 377 75 377 5 0 93 -7 193 -15z m-2793 -515
l131 0 58 -255 c33 -140 58 -257 55 -259 -2 -3 -94 -6 -203 -8 l-199 -3 -84
250 c-45 138 -83 259 -83 269 0 18 6 19 98 13 53 -4 156 -7 227 -7z m864 -16
c6 -6 62 -466 57 -471 -8 -8 -469 -24 -476 -16 -4 4 -31 111 -60 238 -29 126
-55 236 -57 245 -4 13 26 15 264 12 147 -2 269 -5 272 -8z m614 -11 l129 -6
-6 -116 c-4 -64 -9 -162 -12 -217 l-6 -102 -229 -7 c-127 -4 -232 -5 -234 -3
-6 6 -55 391 -55 431 l0 27 143 0 c78 0 200 -3 270 -7z m814 -18 c2 -1 -13
-89 -32 -196 -19 -107 -35 -195 -35 -196 0 -2 -166 -12 -318 -18 l-134 -6 6
113 c4 62 9 159 12 216 l6 102 246 -6 c136 -4 248 -8 249 -9z m530 -9 c2 -1
-21 -84 -49 -183 l-52 -181 -51 -6 c-27 -3 -96 -6 -153 -6 -101 0 -102 0 -97
23 6 25 65 349 65 357 0 5 332 1 337 -4z m-165 -561 c5 -6 -88 -334 -98 -344
-8 -9 -228 -29 -235 -22 -5 5 37 261 56 338 5 21 11 23 133 26 70 1 130 4 133
5 3 1 8 0 11 -3z m-472 -27 c0 -24 -61 -352 -66 -358 -3 -3 -87 -12 -186 -20
l-181 -16 7 191 c4 104 9 191 11 193 2 2 81 7 177 11 95 5 188 9 206 9 20 1
32 -3 32 -10z m-615 -210 c-4 -106 -9 -195 -11 -197 -5 -5 -275 -30 -330 -31
l-41 0 -21 178 c-12 97 -22 189 -22 204 l0 27 98 4 c53 1 150 4 215 5 l119 2
-7 -192z m-596 -36 c13 -111 21 -205 18 -208 -9 -9 -391 -42 -399 -35 -9 8
-108 424 -102 430 5 5 310 18 394 17 l65 -1 24 -203z m-675 161 c26 -89 95
-418 89 -423 -10 -9 -322 -34 -329 -27 -5 4 -154 445 -154 454 0 4 130 9 262
11 113 2 127 0 132 -15z m360 -605 c-68 -117 -214 -297 -297 -366 -95 -79
-123 -88 -291 -95 l-148 -7 16 23 c71 100 127 239 141 350 6 43 11 57 24 58 9
0 129 11 266 23 313 29 298 29 289 14z m-1041 -659 c21 -5 54 -24 74 -42 132
-116 42 -329 -133 -315 -34 3 -66 13 -89 29 -36 25 -85 107 -85 143 0 76 56
157 125 181 49 17 60 18 108 4z m2511 -27 c50 -35 78 -89 78 -151 0 -57 -19
-97 -66 -139 -115 -101 -296 -13 -296 143 0 84 44 141 140 179 31 12 105 -4
144 -32z"/>
</g>
</svg>
